<svg version="1.1" preserveAspectRatio="none" xmlns="http://www.w3.org/2000/svg" width="500" height="500" viewBox="0 0 500 500"><rect width="100%" height="100%" fill="#FFEB62" fill-opacity="1"/><svg viewBox="158.914 984.2236 327.7712 487.7712" width="223.7684586543855" height="333" x="138.1158px" y="83.5px" xmlns="http://www.w3.org/2000/svg" xmlns:xlink="http://www.w3.org/1999/xlink" preserveAspectRatio="none"><defs></defs><style>.companyName {fill:#262626;fill-opacity:1;}.icon1 {fill:#262626;fill-opacity:1;}.icon2 {fill:#FF7B04;fill-opacity:1;}.icon3 {fill:#928B53;fill-opacity:1;}.icon3-str {stroke:#928B53;stroke-opacity:1;}</style><g opacity="1" transform="rotate(0 158.914 984.2236)">
<svg width="327.7712" height="327.7712" x="158.914" y="984.2236" version="1.1" preserveAspectRatio="none" viewBox="0 0 68 68">
  <g transform="matrix(1 0 0 1 0 0)" class="icon1"><path fill-rule="evenodd" d="M90,244 C71.2223185,244 56,228.777681 56,210 L56,178 C56,176.895431 56.8954305,176 58,176 L90,176 C108.777681,176 124,191.222319 124,210 C124,228.777681 108.777681,244 90,244 Z M90,234 C103.254834,234 114,223.254834 114,210 C114,196.745166 103.254834,186 90,186 L68,186 C66.8954305,186 66,186.895431 66,188 L66,210 C66,223.254834 76.745166,234 90,234 Z M70,210 L70,190 L90,190 C101.045695,190 110,198.954305 110,210 C110,221.045695 101.045695,230 90,230 C78.954305,230 70,221.045695 70,210 Z" transform="translate(-56 -176)"></path></g>
</svg>
</g><g opacity="1" transform="rotate(0 158.914 1351.9948)">
<svg width="327.7712" height="120" x="158.914" y="1351.9948" version="1.1" preserveAspectRatio="none" viewBox="0.08 -28 76.48 28">
  <g transform="matrix(1 0 0 1 0 0)" class="companyName"><path id="id-D6z1nYkh3" d="M34.44-28L20.40-15.24L29.52 0L19 0L13.32-9.12L10.68-6.68L9.36 0L0.08 0L5.68-28L14.96-28L12.96-18.08L23.60-28L34.44-28Z M50.60 0L49.68-4.88L39-4.88L36.20 0L26.24 0L44.08-28L53.36-28L60 0L50.60 0ZM42.88-11.68L48.36-11.68L47-18.84L42.88-11.68Z M61.52 0L67.12-28L76.56-28L70.96 0L61.52 0Z"/></g>
</svg>
</g></svg></svg>